# xmcd CD database file
#
# Track frame offsets:
#	150
#	26235
#	52880
#	85345
#	101772
#	118752
#	156207
#	173330
#	193460
#
# Disc length: 3165 seconds
#
# Revision: 2
# Processed by: cddbd v1.4PL0 Copyright (c) Steve Scherf et al.
# Submitted via: CDex 1.40Release
#
DISCID=740c5b09
DTITLE=Black Cat Bone - Livin' On The Hog
DYEAR=1989
DGENRE=Blues
TTITLE0=Boppin' The Blues
TTITLE1=Help The Poor
TTITLE2=I'll Play The Blues For You
TTITLE3=Heart And Soul
TTITLE4=Gangster Of Love
TTITLE5=The Last Time
TTITLE6=Guitar Slinger
TTITLE7=Talk To Your Daughter
TTITLE8=Reconsider Baby
EXTD=YEAR: 1989 ID3G: 0
EXTT0=
EXTT1=
EXTT2=
EXTT3=
EXTT4=
EXTT5=
EXTT6=
EXTT7=Bonus Track\n
EXTT8=Bonus Track\n
PLAYORDER=
